<svg id="Layer_1" viewBox="0 0 64 64" xmlns="http://www.w3.org/2000/svg" data-name="Layer 1"><g><path d="m32.111 62c-11.261 0-21.476-6.217-26.657-16.225-.254-.491-.062-1.094.428-1.348.491-.254 1.094-.061 1.348.428 4.836 9.342 14.37 15.145 24.881 15.145 10.404 0 19.894-5.718 24.765-14.922.257-.487.863-.676 1.352-.416.488.258.674.863.416 1.352-5.218 9.861-15.385 15.986-26.532 15.986z"/><path d="m6.239 19.884c-.152 0-.307-.035-.452-.108-.493-.25-.689-.852-.439-1.344 5.149-10.136 15.403-16.432 26.763-16.432s21.615 6.296 26.763 16.431c.25.493.054 1.095-.438 1.345-.494.251-1.095.054-1.345-.438-4.806-9.46-14.377-15.337-24.98-15.337s-20.174 5.876-24.979 15.336c-.176.348-.528.547-.893.547z"/><path d="m58.358 50.898c-.492 0-.92-.363-.989-.863l-.474-3.436-3.461.207c-.543.043-1.024-.387-1.058-.938s.387-1.025.938-1.058l4.385-.263c.499-.036.979.344 1.05.861l.6 4.353c.075.547-.307 1.052-.854 1.127-.046.006-.092.009-.138.009z"/><path d="m6.239 19.884c-.496 0-.921-.366-.99-.863l-.6-4.353c-.075-.547.307-1.052.854-1.127.543-.078 1.052.307 1.127.854l.474 3.436 3.461-.207c.539-.041 1.024.387 1.058.938.033.551-.387 1.025-.938 1.058l-4.385.263c-.02.001-.04.002-.061.002z"/></g><path d="m31.463 11.969-1.359 5.294c-.06.228-.059.466.002.678l1.594 5.622c.207.771.144 1.572-.172 2.27l-1.866 4.076c-.205.446-.139.966.172 1.357.536.663 1.637.614 2.117-.121l1.206-1.884c.292-.446.676-.81 1.117-1.064l2.537-1.487c.458-.26.705-.76.641-1.28l-.41-3.404c-.11-.945.188-1.889.817-2.595.626-.703 1.525-1.106 2.468-1.106h.363c.583 0 1.085-.375 1.25-.932l.695-2.369c-3.087-1.941-6.727-3.083-10.635-3.083-.181 0-.357.022-.537.027z"/><path d="m44.527 34.602.149-.214c.326-.469.281-1.115-.108-1.535l-1.073-1.158c-.237-.255-.568-.392-.903-.392-.186 0-.373.042-.546.128l-.415.207c-.447.224-.712.691-.674 1.19l.086 1.142c.065.854-.22 1.716-.784 2.364l-1.117 1.282c-.247.284-.35.66-.281 1.031l.433 2.323c.079.42.363.764.762.919l2.117.824c.572.223 1.227-.015 1.522-.554l1.201-2.196c.246-.449.185-1.01-.152-1.396-.975-1.118-1.064-2.748-.218-3.965z"/><path d="m44.364 16.238-.505 1.72c-.418 1.417-1.691 2.368-3.168 2.368h-.363c-.378 0-.724.155-.975.436-.253.285-.369.65-.325 1.03l.41 3.397c.162 1.321-.476 2.598-1.626 3.253l-2.533 1.485c-.175.101-.33.249-.443.422l-1.205 1.882c-.625.957-1.663 1.523-2.781 1.523-1.002 0-1.942-.452-2.577-1.239-.787-.99-.949-2.306-.429-3.44l1.864-4.071c.122-.271.146-.604.064-.91l-1.589-5.604c-.16-.557-.166-1.156-.015-1.729l1.186-4.624c-8.636 1.146-15.544 7.793-17.077 16.302 1.724-.002 3.127.429 4.172 1.301.925.781 1.31 1.67 1.649 2.454.361.835.647 1.495 1.525 2.09 1.074.731 2.103.705 3.189.679 1.186-.03 2.535-.063 3.639 1.073 1.141 1.171 1.125 2.683 1.113 3.897-.012 1.123.007 1.833.518 2.251.426.35.965.35 1.798.308.887-.045 1.991-.1 2.698.862.84 1.133.236 2.489-.348 3.801-.32.718-.65 1.461-.835 2.256-.191.831-.211 1.694-.073 2.613.227.008.449.034.678.034 11.06 0 20.058-8.998 20.058-20.058 0-6.395-3.019-12.087-7.694-15.762zm1.888 21.014c.886 1.014 1.046 2.489.399 3.67l-1.201 2.196c-.58 1.06-1.687 1.677-2.838 1.677-.39 0-.784-.071-1.165-.219l-2.118-.824c-1.048-.409-1.796-1.312-2.001-2.417l-.433-2.323c-.182-.975.087-1.963.738-2.711l1.117-1.281c.214-.246.323-.573.298-.898l-.086-1.142c-.1-1.312.596-2.542 1.774-3.131l.415-.207c1.273-.638 2.841-.354 3.81.693l1.073 1.158c1.023 1.104 1.142 2.801.282 4.037l-.149.214c-.321.462-.287 1.083.083 1.508z"/><path d="m29.292 51.853c-.101-.999-.057-1.97.155-2.893.229-.984.616-1.853.957-2.619.267-.599.713-1.601.566-1.799-.073-.099-.692-.066-.989-.053-.892.047-2.115.106-3.167-.758-1.278-1.046-1.263-2.583-1.25-3.818.01-1.02.019-1.901-.546-2.482-.474-.487-1.064-.497-2.156-.468-1.229.029-2.757.069-4.363-1.024-1.358-.922-1.845-2.046-2.236-2.95-.3-.694-.538-1.242-1.099-1.716-.727-.606-1.776-.863-3.143-.818-.039.512-.078 1.024-.078 1.546 0 10.139 7.57 18.524 17.35 19.853z"/></svg>