<svg width="24" height="24" viewBox="0 0 24 24" fill="none" xmlns="http://www.w3.org/2000/svg">
<path d="M10.3185 20.9695C8.46046 20.5956 6.91796 19.6674 5.69096 18.1847C4.46396 16.7021 3.85046 14.9841 3.85046 13.031C3.85046 11.8675 4.09346 10.7657 4.57946 9.72573C5.06563 8.68573 5.75505 7.80106 6.64771 7.07173C6.79305 6.9319 6.9783 6.86515 7.20346 6.87148C7.42863 6.87781 7.62188 6.96156 7.78321 7.12273C7.95771 7.2974 8.03863 7.50206 8.02596 7.73673C8.0133 7.97123 7.90496 8.17982 7.70096 8.36248C7.02496 8.93382 6.49813 9.6294 6.12046 10.4492C5.74263 11.2689 5.55371 12.1295 5.55371 13.031C5.55371 14.5698 6.02513 15.9104 6.96796 17.0527C7.91063 18.1951 9.10771 18.9329 10.5592 19.2662C10.7625 19.3156 10.9326 19.4232 11.0695 19.5892C11.2065 19.7551 11.275 19.9396 11.275 20.143C11.275 20.4201 11.1777 20.6395 10.9832 20.801C10.7885 20.9626 10.567 21.0188 10.3185 20.9695ZM13.7375 20.9695C13.485 21.0228 13.2614 20.9676 13.0667 20.804C12.8722 20.6405 12.775 20.4221 12.775 20.149C12.775 19.9496 12.8435 19.765 12.9805 19.595C13.1173 19.4251 13.2874 19.3156 13.4907 19.2662C14.9589 18.9329 16.156 18.1951 17.082 17.0527C18.0081 15.9104 18.4712 14.5698 18.4712 13.031C18.4712 11.2501 17.858 9.73756 16.6315 8.49323C15.405 7.2489 13.9014 6.61473 12.1207 6.59073H11.6027L12.5837 7.57173C12.721 7.71306 12.7897 7.89607 12.7897 8.12073C12.7897 8.34523 12.721 8.52815 12.5837 8.66948C12.4257 8.82748 12.2334 8.90648 12.0067 8.90648C11.78 8.90648 11.5961 8.82748 11.455 8.66948L9.06621 6.30598C8.97488 6.21465 8.90963 6.12031 8.87046 6.02298C8.83113 5.92581 8.81146 5.82123 8.81146 5.70923C8.81146 5.59323 8.83113 5.48765 8.87046 5.39248C8.90963 5.29715 8.97488 5.20382 9.06621 5.11248L11.455 2.71198C11.5961 2.57465 11.78 2.50598 12.0067 2.50598C12.2334 2.50598 12.4257 2.57465 12.5837 2.71198C12.721 2.86998 12.7897 3.06223 12.7897 3.28873C12.7897 3.5154 12.721 3.6994 12.5837 3.84073L11.537 4.88148H12.0607C14.326 4.88148 16.2456 5.67656 17.8195 7.26673C19.3935 8.85706 20.1805 10.7785 20.1805 13.031C20.1805 14.9841 19.5701 16.7021 18.3495 18.1847C17.1288 19.6674 15.5915 20.5956 13.7375 20.9695Z" fill="black"/>
</svg>
