<svg width="49" height="48" viewBox="0 0 49 48" fill="none" xmlns="http://www.w3.org/2000/svg">
<path d="M11.1914 24.1621C11.1914 26.2604 11.6398 28.1761 12.5364 29.9091C13.4331 31.6421 14.8909 33.1634 16.9099 34.4731V30.0601C16.9099 29.6097 17.0568 29.2371 17.3504 28.9421C17.6441 28.6474 18.0191 28.5001 18.4754 28.5001C18.9284 28.5001 19.3026 28.6474 19.5979 28.9421C19.8936 29.2371 20.0414 29.6097 20.0414 30.0601V38.4761C20.0414 38.9654 19.8798 39.3716 19.5564 39.6946C19.2331 40.0179 18.8269 40.1796 18.3379 40.1796H9.93345C9.48345 40.1796 9.11095 40.0311 8.81595 39.7341C8.52128 39.4374 8.37395 39.0624 8.37395 38.6091C8.37395 38.1591 8.52078 37.7864 8.81445 37.4911C9.10812 37.1957 9.48512 37.0481 9.94545 37.0481H14.5869C12.4536 35.4241 10.7846 33.6037 9.57995 31.5871C8.37528 29.5704 7.77295 27.0954 7.77295 24.1621C7.77295 21.1414 8.57178 18.2964 10.1694 15.6271C11.7674 12.9577 14.0563 10.9151 17.0359 9.49906C17.4423 9.31639 17.8384 9.32839 18.2244 9.53506C18.6104 9.74139 18.8868 10.0539 19.0534 10.4726C19.1944 10.8989 19.1884 11.3134 19.0354 11.7161C18.8821 12.1184 18.6021 12.4149 18.1954 12.6056C16.1581 13.6456 14.4814 15.1971 13.1654 17.2601C11.8494 19.3231 11.1914 21.6237 11.1914 24.1621ZM30.2034 40.4786C28.4654 40.4786 26.9851 39.8682 25.7624 38.6476C24.5398 37.4272 23.9284 35.9452 23.9284 34.2016C23.9284 32.5546 24.4883 31.1279 25.6079 29.9216C26.7279 28.7152 28.1039 28.0587 29.7359 27.9521C30.3343 26.7441 31.2058 25.7714 32.3504 25.0341C33.4951 24.2971 34.7796 23.9286 36.2039 23.9286C38.0353 23.9286 39.6161 24.5094 40.9464 25.6711C42.2771 26.8331 43.0718 28.2601 43.3304 29.9521H43.4304C44.8464 30.0001 46.0438 30.5381 47.0224 31.5661C48.0008 32.5937 48.4899 33.7902 48.4899 35.1556C48.4899 36.6222 47.977 37.8761 46.951 38.9171C45.9246 39.9581 44.6754 40.4786 43.2034 40.4786H30.2034ZM31.2519 13.5271V17.9401C31.2519 18.3904 31.1023 18.7631 30.8029 19.0581C30.5036 19.3527 30.129 19.5001 29.6789 19.5001C29.2289 19.5001 28.8548 19.3516 28.5564 19.0546C28.2578 18.7572 28.1084 18.3819 28.1084 17.9286V9.52406C28.1084 9.03472 28.2701 8.62856 28.5934 8.30556C28.9168 7.98222 29.3269 7.82056 29.8239 7.82056H38.2164C38.6654 7.82056 39.0396 7.96806 39.3389 8.26306C39.6383 8.55773 39.7879 8.93022 39.7879 9.38056C39.7879 9.83089 39.6383 10.2054 39.3389 10.5041C39.0396 10.8027 38.6654 10.9521 38.2164 10.9521H33.5249C34.8439 12.0697 36.0394 13.3776 37.1114 14.8756C38.1834 16.3739 38.9861 17.9371 39.5194 19.5651C39.6768 20.0211 39.6351 20.4582 39.3944 20.8766C39.1538 21.2952 38.7889 21.5477 38.2999 21.6341C37.8443 21.7207 37.4071 21.6356 36.9884 21.3786C36.5701 21.1212 36.2743 20.7686 36.101 20.3206C35.6503 19.0002 35.0303 17.7907 34.2409 16.6921C33.4513 15.5931 32.4549 14.5381 31.2519 13.5271ZM30.2034 37.2036H43.2034C43.7701 37.2036 44.2451 37.0119 44.6284 36.6286C45.0118 36.2452 45.2034 35.7702 45.2034 35.2036C45.2034 34.6446 45.0118 34.1714 44.6284 33.7841C44.2451 33.3971 43.7701 33.2036 43.2034 33.2036H40.7034V31.7036C40.7034 30.4446 40.2701 29.3797 39.4034 28.5091C38.5368 27.6387 37.4701 27.2036 36.2034 27.2036C34.9444 27.2036 33.8796 27.6119 33.0089 28.4286C32.1386 29.2452 31.7034 30.1702 31.7034 31.2036H30.2034C29.3701 31.2036 28.6618 31.4952 28.0784 32.0786C27.4951 32.6619 27.2034 33.3702 27.2034 34.2036C27.2034 35.0369 27.4951 35.7452 28.0784 36.3286C28.6618 36.9119 29.3701 37.2036 30.2034 37.2036Z" fill="#D2AE5B"/>
</svg>
