<svg width="48" height="48" viewBox="0 0 48 48" fill="none" xmlns="http://www.w3.org/2000/svg">
<path d="M16.5522 42.299C13.5485 42.299 10.989 41.2415 8.87367 39.1265C6.75867 37.0115 5.70117 34.4523 5.70117 31.449C5.70117 30.15 5.92017 28.911 6.35817 27.732C6.79584 26.5526 7.40951 25.4688 8.19917 24.4805L15.7752 15.4285L12.1612 8.13796C11.8625 7.5743 11.8842 7.0253 12.2262 6.49096C12.5678 5.9563 13.0558 5.68896 13.6902 5.68896H34.3602C34.9945 5.68896 35.4825 5.9563 35.8242 6.49096C36.1662 7.0253 36.1878 7.5743 35.8892 8.13796L32.2752 15.4285L39.7892 24.4805C40.6132 25.4711 41.2395 26.5556 41.6682 27.734C42.0968 28.9126 42.3278 30.1503 42.3612 31.447C42.3612 34.4526 41.3022 37.0126 39.1842 39.127C37.0665 41.2416 34.5045 42.299 31.4982 42.299H16.5522ZM24.0002 31.2195C23.1428 31.2195 22.4228 30.9201 21.8402 30.3215C21.2578 29.7231 20.9667 28.9906 20.9667 28.124C20.9667 27.2666 21.2578 26.5383 21.8402 25.939C22.4228 25.3396 23.1428 25.04 24.0002 25.04C24.8908 25.04 25.6378 25.3388 26.2412 25.9365C26.8442 26.5338 27.1457 27.265 27.1457 28.13C27.1457 28.995 26.8442 29.7261 26.2412 30.3235C25.6378 30.9208 24.8908 31.2195 24.0002 31.2195ZM18.8457 13.999H29.1667L31.6372 9.09546H16.4132L18.8457 13.999ZM16.5522 38.9045H31.4482C33.5078 38.9045 35.2655 38.1755 36.7212 36.7175C38.1768 35.2595 38.9047 33.5021 38.9047 31.4455C38.9047 30.5635 38.7587 29.7156 38.4667 28.902C38.1747 28.0883 37.7492 27.3521 37.1902 26.6935L29.4522 17.4055H18.5482L10.8612 26.6935C10.3015 27.3521 9.86734 28.089 9.55867 28.904C9.25001 29.719 9.09567 30.567 9.09567 31.448C9.09567 33.5023 9.82484 35.2586 11.2832 36.717C12.7415 38.1753 14.4978 38.9045 16.5522 38.9045Z" fill="#C89E39"/>
</svg>
