<svg width="48" height="48" viewBox="0 0 48 48" fill="none" xmlns="http://www.w3.org/2000/svg">
<path d="M28.1761 29.6685C27.4014 28.0388 25.9229 26.7335 23.7406 25.7525C21.5579 24.7718 19.2859 24.2815 16.9246 24.2815C14.5633 24.2815 12.2896 24.7718 10.1036 25.7525C7.91726 26.7335 6.4241 28.0388 5.6241 29.6685H28.1761ZM16.9501 21.15C18.6001 21.15 20.2171 21.3353 21.8011 21.706C23.3851 22.0766 24.8443 22.656 26.1786 23.444C27.5126 24.232 28.6629 25.2331 29.6296 26.4475C30.5963 27.6615 31.2788 29.0993 31.6771 30.761C31.7931 31.2913 31.6824 31.7638 31.3451 32.1785C31.0078 32.5928 30.5674 32.8 30.0241 32.8H3.8261C3.28276 32.8 2.84243 32.5928 2.5051 32.1785C2.16776 31.7638 2.0571 31.2913 2.1731 30.761C2.57143 29.0993 3.25193 27.6615 4.2146 26.4475C5.17726 25.2331 6.32576 24.232 7.6601 23.444C8.9941 22.656 10.4594 22.0766 12.0561 21.706C13.6528 21.3353 15.2841 21.15 16.9501 21.15ZM3.2851 39.26C2.8431 39.26 2.4726 39.1085 2.1736 38.8055C1.8746 38.5028 1.7251 38.1278 1.7251 37.6805C1.7251 37.2365 1.8746 36.8668 2.1736 36.5715C2.4726 36.2761 2.8431 36.1285 3.2851 36.1285H30.5651C31.0071 36.1285 31.3776 36.2786 31.6766 36.579C31.9756 36.8793 32.1251 37.2516 32.1251 37.696C32.1251 38.14 31.9756 38.5116 31.6766 38.811C31.3776 39.1103 31.0071 39.26 30.5651 39.26H3.2851ZM39.4771 46.275H36.8286C36.3476 46.275 35.9434 46.1105 35.6161 45.7815C35.2888 45.4525 35.1251 45.0463 35.1251 44.563C35.1251 44.0796 35.2888 43.6765 35.6161 43.3535C35.9434 43.0301 36.3476 42.8685 36.8286 42.8685H39.5566L42.3586 14.1315H24.0981C23.6088 14.1315 23.2109 13.967 22.9046 13.638C22.5979 13.309 22.4446 12.9028 22.4446 12.4195C22.4446 11.9361 22.6083 11.533 22.9356 11.21C23.2629 10.8866 23.6671 10.725 24.1481 10.725H32.3706V3.35648C32.3706 2.88881 32.5293 2.49997 32.8466 2.18997C33.1636 1.87997 33.5558 1.72498 34.0231 1.72498C34.4904 1.72498 34.8778 1.87997 35.1851 2.18997C35.4921 2.49997 35.6456 2.88881 35.6456 3.35648V10.725H44.3981C44.9094 10.725 45.3398 10.9113 45.6891 11.284C46.0384 11.657 46.1758 12.0923 46.1011 12.59L42.8891 43.1915C42.7781 44.0695 42.3996 44.8028 41.7536 45.3915C41.1073 45.9805 40.3484 46.275 39.4771 46.275ZM3.2851 46.275C2.8431 46.275 2.4726 46.1236 2.1736 45.821C1.8746 45.5183 1.7251 45.1433 1.7251 44.696C1.7251 44.2516 1.8746 43.8818 2.1736 43.5865C2.4726 43.2911 2.8431 43.1435 3.2851 43.1435H30.5651C31.0071 43.1435 31.3776 43.2936 31.6766 43.594C31.9756 43.8946 32.1251 44.267 32.1251 44.711C32.1251 45.155 31.9756 45.5266 31.6766 45.826C31.3776 46.1253 31.0071 46.275 30.5651 46.275H3.2851Z" fill="#C89E39"/>
</svg>
