<svg width="48" height="48" viewBox="0 0 48 48" fill="none" xmlns="http://www.w3.org/2000/svg">
<path d="M24.0002 44.299C19.3495 44.299 15.4703 42.7035 12.3627 39.5125C9.25501 36.3212 7.70117 32.3503 7.70117 27.6C7.70117 25.5463 8.15467 23.4955 9.06167 21.4475C9.96834 19.3992 11.1308 17.4063 12.5492 15.469C13.9672 13.5317 15.5358 11.6835 17.2552 9.92451C18.9742 8.16551 20.6547 6.55235 22.2967 5.08501C22.562 4.86101 22.8362 4.70135 23.1192 4.60601C23.4018 4.51068 23.696 4.46301 24.0017 4.46301C24.3073 4.46301 24.601 4.51068 24.8827 4.60601C25.1647 4.70135 25.4383 4.86101 25.7037 5.08501C27.3457 6.55235 29.0262 8.16551 30.7452 9.92451C32.4645 11.6835 34.0332 13.5317 35.4512 15.469C36.8695 17.4063 38.034 19.3992 38.9447 21.4475C39.8557 23.4955 40.3112 25.5463 40.3112 27.6C40.3112 32.3503 38.7553 36.3212 35.6437 39.5125C32.532 42.7035 28.6508 44.299 24.0002 44.299ZM24.0017 40.8925C27.702 40.8925 30.7757 39.627 33.2227 37.096C35.6693 34.5653 36.8927 31.4 36.8927 27.6C36.8927 25.0067 35.7943 22.0528 33.5977 18.7385C31.4007 15.4245 28.2015 11.8968 24.0002 8.15551C19.7988 11.8968 16.5997 15.4245 14.4027 18.7385C12.206 22.0528 11.1077 25.0067 11.1077 27.6C11.1077 31.4 12.3317 34.5653 14.7797 37.096C17.2273 39.627 20.3013 40.8925 24.0017 40.8925ZM23.9742 37.552C24.5315 37.552 24.9637 37.4507 25.2707 37.248C25.578 37.0453 25.7317 36.7522 25.7317 36.3685C25.7317 35.9778 25.58 35.6725 25.2767 35.4525C24.9733 35.2328 24.5225 35.123 23.9242 35.123C22.4842 35.123 21.079 34.6853 19.7087 33.81C18.3387 32.9343 17.4575 31.4277 17.0652 29.29C16.9985 28.9823 16.8427 28.7268 16.5977 28.5235C16.3523 28.3202 16.0803 28.2185 15.7817 28.2185C15.3767 28.2185 15.0678 28.3682 14.8552 28.6675C14.6425 28.9668 14.5695 29.2783 14.6362 29.602C15.1362 32.41 16.3202 34.437 18.1882 35.683C20.0562 36.929 21.9848 37.552 23.9742 37.552Z" fill="white"/>
</svg>
