<svg width="48" height="48" viewBox="0 0 48 48" fill="none" xmlns="http://www.w3.org/2000/svg">
<path d="M23.988 46.275C20.2546 46.275 16.6546 45.187 13.188 43.011C9.7213 40.8346 6.97597 38.3458 4.95197 35.5445V40.6435C4.95197 41.1088 4.79646 41.497 4.48546 41.808C4.17413 42.1193 3.7858 42.275 3.32047 42.275C2.85547 42.275 2.4673 42.1193 2.15596 41.808C1.84463 41.497 1.68896 41.1088 1.68896 40.6435V31.5715C1.68896 31.0825 1.85063 30.6765 2.17396 30.3535C2.49696 30.0301 2.90313 29.8685 3.39246 29.8685H12.464C12.9293 29.8685 13.3176 30.0241 13.629 30.3355C13.94 30.6465 14.0955 31.0346 14.0955 31.5C14.0955 31.9653 13.94 32.3535 13.629 32.6645C13.3176 32.9758 12.9293 33.1315 12.464 33.1315H7.24547C8.94547 35.6581 11.3606 37.9346 14.491 39.961C17.621 41.987 20.7866 43 23.988 43C28.9403 43 33.2248 41.3405 36.8415 38.0215C40.4581 34.7028 42.4903 30.6055 42.938 25.7295C42.9713 25.2641 43.1456 24.8715 43.461 24.5515C43.776 24.2315 44.1661 24.0715 44.6315 24.0715C45.0635 24.0715 45.4433 24.2191 45.771 24.5145C46.099 24.8098 46.2463 25.1735 46.213 25.6055C45.989 28.5041 45.2568 31.2113 44.0165 33.727C42.7758 36.243 41.1581 38.43 39.1635 40.288C37.1688 42.146 34.87 43.6083 32.267 44.675C29.6636 45.7416 26.904 46.275 23.988 46.275ZM24 4.99998C19.0476 4.99998 14.7631 6.65948 11.1465 9.97848C7.5298 13.2971 5.50163 17.3945 5.06196 22.2705C5.02063 22.7358 4.8423 23.1285 4.52696 23.4485C4.21197 23.7685 3.8218 23.9285 3.35646 23.9285C2.91646 23.9285 2.53663 23.7728 2.21696 23.4615C1.89696 23.1501 1.75363 22.7746 1.78696 22.335C2.00297 19.4603 2.73113 16.769 3.97146 14.261C5.21213 11.753 6.8258 9.57198 8.81247 7.71798C10.7991 5.86398 13.0961 4.40164 15.7035 3.33098C18.3105 2.26031 21.076 1.72498 24 1.72498C27.7333 1.72498 31.3373 2.81498 34.812 4.99498C38.2866 7.17498 41.028 9.66181 43.036 12.4555V7.35648C43.036 6.88314 43.1915 6.49297 43.5025 6.18597C43.8138 5.87864 44.2061 5.72498 44.6795 5.72498C45.1525 5.72498 45.5426 5.87864 45.85 6.18597C46.1573 6.49297 46.311 6.88314 46.311 7.35648V16.4285C46.311 16.9175 46.1493 17.3235 45.826 17.6465C45.503 17.9698 45.0968 18.1315 44.6075 18.1315H35.536C35.0706 18.1315 34.6823 17.9758 34.371 17.6645C34.06 17.3535 33.9045 16.9653 33.9045 16.5C33.9045 16.0346 34.06 15.6465 34.371 15.3355C34.6823 15.0241 35.0706 14.8685 35.536 14.8685H40.7545C39.0305 12.3178 36.6058 10.0353 33.4805 8.02097C30.3551 6.00697 27.195 4.99998 24 4.99998ZM23.802 35.7C24.3593 35.7 24.8333 35.5046 25.224 35.114C25.6146 34.7236 25.81 34.2538 25.81 33.7045C25.81 33.1471 25.6146 32.6771 25.224 32.2945C24.8333 31.9118 24.3593 31.7205 23.802 31.7205C23.253 31.7205 22.7851 31.9138 22.3985 32.3005C22.0118 32.6871 21.8185 33.1551 21.8185 33.7045C21.8185 34.2615 22.0118 34.7333 22.3985 35.12C22.7851 35.5066 23.253 35.7 23.802 35.7ZM27.36 23.55C28.396 22.5056 29.1406 21.5506 29.594 20.685C30.0473 19.819 30.274 18.9033 30.274 17.938C30.274 16.2046 29.678 14.811 28.486 13.757C27.294 12.703 25.802 12.176 24.01 12.176C22.6193 12.176 21.3723 12.4506 20.269 13C19.1656 13.5493 18.2726 14.3653 17.59 15.448C17.341 15.8303 17.2871 16.2271 17.4285 16.6385C17.5695 17.0498 17.8393 17.3388 18.238 17.5055C18.6286 17.6801 19.036 17.6865 19.46 17.5245C19.8836 17.3625 20.2448 17.1108 20.5435 16.7695C20.9941 16.2855 21.5095 15.9098 22.0895 15.6425C22.6698 15.3751 23.298 15.2415 23.974 15.2415C24.8846 15.2415 25.6535 15.4941 26.2805 15.9995C26.9071 16.5048 27.2205 17.1963 27.2205 18.074C27.2205 18.7246 27.0291 19.3563 26.6465 19.969C26.2641 20.5816 25.6795 21.2688 24.8925 22.0305C23.9178 22.9545 23.2368 23.7501 22.8495 24.4175C22.4621 25.0848 22.2185 25.8351 22.1185 26.6685C22.0518 27.1005 22.1765 27.4763 22.4925 27.796C22.8085 28.116 23.1783 28.276 23.602 28.276C24.034 28.276 24.3933 28.1263 24.68 27.827C24.9666 27.528 25.1718 27.1665 25.2955 26.7425C25.4288 26.1741 25.6581 25.646 25.9835 25.158C26.3088 24.67 26.7676 24.134 27.36 23.55Z" fill="#0A5024"/>
</svg>
