<svg width="48" height="48" viewBox="0 0 48 48" fill="none" xmlns="http://www.w3.org/2000/svg">
<path d="M24.0009 42.299C21.7575 42.299 19.6757 41.7623 17.7554 40.689C15.835 39.616 14.4169 38.0768 13.5009 36.0715H9.27738C8.82205 36.0715 8.44555 35.9218 8.14788 35.6225C7.84988 35.3228 7.70088 34.9457 7.70088 34.491C7.70088 34.0367 7.84988 33.6627 8.14788 33.369C8.44555 33.0753 8.82055 32.9285 9.27288 32.9285H12.2889C12.0615 32.0855 11.9484 31.2315 11.9494 30.3665C11.9504 29.5015 11.9509 28.6365 11.9509 27.7715H9.22288C8.77055 27.7715 8.39555 27.6218 8.09788 27.3225C7.79988 27.0228 7.65088 26.6457 7.65088 26.191C7.65088 25.7367 7.79988 25.3627 8.09788 25.069C8.39555 24.7753 8.77055 24.6285 9.22288 24.6285H11.9509C11.9509 23.6855 11.9587 22.751 11.9744 21.825C11.99 20.899 12.1282 19.9812 12.3889 19.0715H9.27288C8.82055 19.0715 8.44555 18.9218 8.14788 18.6225C7.84988 18.3228 7.70088 17.9457 7.70088 17.491C7.70088 17.0367 7.84988 16.6627 8.14788 16.369C8.44555 16.0753 8.82055 15.9285 9.27288 15.9285H13.7369C14.1875 14.9712 14.7982 14.1365 15.5689 13.4245C16.3395 12.7125 17.1955 12.1192 18.1369 11.6445L15.3374 8.90699C15.045 8.61466 14.9009 8.26415 14.9049 7.85549C14.9089 7.44649 15.0592 7.09115 15.3559 6.78949C15.6369 6.50382 15.9822 6.36099 16.3919 6.36099C16.8015 6.36099 17.1529 6.50682 17.4459 6.79849L21.0944 10.437C22.049 10.0717 23.026 9.88499 24.0254 9.87699C25.0244 9.86899 26.0104 10.0477 26.9834 10.413L30.6479 6.74899C30.9292 6.45832 31.2772 6.31299 31.6919 6.31299C32.1069 6.31299 32.4624 6.46132 32.7584 6.75799C33.039 7.03932 33.1794 7.38615 33.1794 7.79849C33.1794 8.21115 33.038 8.55982 32.7554 8.84449L30.0269 11.573C30.9922 12.0633 31.84 12.6893 32.5704 13.451C33.301 14.213 33.9312 15.0627 34.4609 16H38.8249C39.2499 16 39.612 16.1495 39.9114 16.4485C40.211 16.7472 40.3609 17.1125 40.3609 17.5445C40.3609 17.9765 40.211 18.339 39.9114 18.632C39.612 18.925 39.2499 19.0715 38.8249 19.0715H35.6109C35.9049 19.9785 36.045 20.8985 36.0314 21.8315C36.0177 22.7645 36.0109 23.6968 36.0109 24.6285H38.7889C39.2342 24.6285 39.6075 24.7782 39.9089 25.0775C40.2102 25.3772 40.3609 25.7543 40.3609 26.209C40.3609 26.6633 40.2102 27.0373 39.9089 27.331C39.6075 27.6247 39.2342 27.7715 38.7889 27.7715H36.0109C36.0109 28.6478 36.0172 29.515 36.0299 30.373C36.0425 31.231 35.9362 32.0828 35.7109 32.9285H38.7889C39.2342 32.9285 39.6075 33.0782 39.9089 33.3775C40.2102 33.6772 40.3609 34.0543 40.3609 34.509C40.3609 34.9633 40.2102 35.3373 39.9089 35.631C39.6075 35.9247 39.2342 36.0715 38.7889 36.0715H34.5609C33.6622 38.1022 32.2445 39.6477 30.3079 40.708C28.3712 41.7687 26.2689 42.299 24.0009 42.299ZM24.0079 38.8925C26.4025 38.8925 28.4319 38.052 30.0959 36.371C31.7602 34.69 32.5924 32.6512 32.5924 30.2545V22.1075C32.5924 19.7042 31.7575 17.6597 30.0879 15.974C28.4185 14.2883 26.3865 13.4455 23.9919 13.4455C21.5972 13.4455 19.5679 14.2883 17.9039 15.974C16.2395 17.6597 15.4074 19.7042 15.4074 22.1075V30.2545C15.4074 32.6512 16.2422 34.69 17.9119 36.371C19.5812 38.052 21.6132 38.8925 24.0079 38.8925ZM21.5714 32.0715H26.4284C26.8734 32.0715 27.2465 31.9218 27.5479 31.6225C27.8492 31.3228 27.9999 30.9457 27.9999 30.491C27.9999 30.0367 27.8509 29.6627 27.5529 29.369C27.2552 29.0753 26.8804 28.9285 26.4284 28.9285H21.5714C21.1264 28.9285 20.7532 29.0782 20.4519 29.3775C20.1505 29.6772 19.9999 30.0543 19.9999 30.509C19.9999 30.9633 20.1489 31.3373 20.4469 31.631C20.7445 31.9247 21.1194 32.0715 21.5714 32.0715ZM21.5714 23.4215H26.4284C26.8734 23.4215 27.2465 23.2718 27.5479 22.9725C27.8492 22.6728 27.9999 22.2957 27.9999 21.841C27.9999 21.3867 27.8509 21.0127 27.5529 20.719C27.2552 20.4253 26.8804 20.2785 26.4284 20.2785H21.5714C21.1264 20.2785 20.7532 20.4282 20.4519 20.7275C20.1505 21.0272 19.9999 21.4043 19.9999 21.859C19.9999 22.3133 20.1489 22.6873 20.4469 22.981C20.7445 23.2747 21.1194 23.4215 21.5714 23.4215Z" fill="white"/>
</svg>
