<svg width="48" height="48" viewBox="0 0 48 48" fill="none" xmlns="http://www.w3.org/2000/svg">
<path d="M7.15273 18.05C6.7444 18.05 6.40573 17.8948 6.13673 17.5845C5.8674 17.2741 5.73273 16.9055 5.73273 16.4785C5.73273 16.0545 5.8674 15.6885 6.13673 15.3805C6.40573 15.0725 6.74506 14.9185 7.15473 14.9185H14.6047C15.4674 14.9185 16.2012 15.2241 16.8062 15.8355C17.4116 16.4465 17.7976 17.1846 17.9642 18.05H7.15273ZM11.4582 37C13.2106 37 14.6991 36.39 15.9237 35.17C17.1487 33.95 17.7612 32.4645 17.7612 30.7135C17.7612 28.9625 17.1507 27.4735 15.9297 26.2465C14.7087 25.0198 13.2222 24.4065 11.4702 24.4065C9.71823 24.4065 8.22973 25.0173 7.00473 26.239C5.78006 27.4606 5.16773 28.9481 5.16773 30.7015C5.16773 32.4548 5.77806 33.943 6.99873 35.166C8.21973 36.3886 9.70623 37 11.4582 37ZM39.2782 37.1315C40.3009 37.1315 41.1709 36.7745 41.8882 36.0605C42.6056 35.3465 42.9642 34.4795 42.9642 33.4595C42.9642 32.4458 42.6071 31.5783 41.8927 30.857C41.1784 30.1356 40.3111 29.775 39.2907 29.775C38.2704 29.775 37.3994 30.1336 36.6777 30.851C35.9564 31.5683 35.5957 32.4356 35.5957 33.453C35.5957 34.4706 35.9537 35.3381 36.6697 36.0555C37.3857 36.7728 38.2552 37.1315 39.2782 37.1315ZM11.4737 34.0715C10.5407 34.0715 9.74656 33.7431 9.09123 33.0865C8.43556 32.4295 8.10773 31.6345 8.10773 30.7015C8.10773 29.7685 8.43356 28.9741 9.08523 28.3185C9.73656 27.6628 10.5289 27.335 11.4622 27.335C12.3952 27.335 13.1902 27.6615 13.8472 28.3145C14.5042 28.9678 14.8327 29.761 14.8327 30.694C14.8327 31.627 14.5062 32.4231 13.8532 33.0825C13.1999 33.7418 12.4067 34.0715 11.4737 34.0715ZM40.4882 26.5875C41.1616 26.7465 41.7361 26.9411 42.2117 27.1715C42.6877 27.4018 43.2089 27.7465 43.7752 28.2055V15.1575C43.7752 14.1715 43.4509 13.3553 42.8022 12.709C42.1536 12.0623 41.3384 11.739 40.3567 11.739H26.9207L24.4862 9.32497L27.5622 6.24897L26.4707 5.15747L19.2652 12.351L20.3567 13.4925L23.3827 10.4665L25.8087 12.8005V18.15C25.8087 19.491 25.3497 20.646 24.4317 21.615C23.5137 22.584 22.3826 23.0685 21.0382 23.0685H17.4207C18.0671 23.5591 18.5652 24.0245 18.9152 24.4645C19.2652 24.9048 19.6587 25.4833 20.0957 26.2H21.0382C23.1889 26.2 25.0436 25.4 26.6022 23.8C28.1609 22.2 28.9402 20.3166 28.9402 18.15V15.026H40.4882V26.5875ZM32.4677 32.275C32.6697 31.478 32.8851 30.8531 33.1137 30.4005C33.3424 29.9478 33.6886 29.4643 34.1522 28.95H21.0317C21.1224 29.6056 21.1697 30.1598 21.1737 30.6125C21.1777 31.0651 21.1424 31.6193 21.0677 32.275H32.4677ZM39.3112 40.4065C37.3759 40.4065 35.7289 39.7428 34.3702 38.4155C33.0119 37.0881 32.3327 35.4855 32.3327 33.6075C32.3327 31.6468 33.0257 29.9721 34.4117 28.5835C35.7977 27.1945 37.4711 26.5 39.4317 26.5C41.3094 26.5 42.9134 27.1798 44.2437 28.5395C45.5741 29.8991 46.2392 31.5371 46.2392 33.4535C46.2392 35.4055 45.5684 37.0523 44.2267 38.394C42.8851 39.7356 41.2466 40.4065 39.3112 40.4065ZM11.3602 40.4065C8.66956 40.4065 6.39706 39.4608 4.54273 37.5695C2.6884 35.6781 1.76123 33.3908 1.76123 30.7075C1.76123 28.0241 2.70606 25.7355 4.59573 23.8415C6.4854 21.9471 8.77323 21 11.4592 21C14.1452 21 16.4347 21.947 18.3277 23.841C20.2211 25.735 21.1677 28.0255 21.1677 30.7125C21.1677 33.3998 20.2224 35.6873 18.3317 37.575C16.4414 39.4626 14.1176 40.4065 11.3602 40.4065Z" fill="#C89E39"/>
</svg>
