<svg width="32" height="32" viewBox="0 0 32 32" fill="none" xmlns="http://www.w3.org/2000/svg">
<path d="M16.0002 19.3L18.7646 20.979C18.9708 21.1114 19.1743 21.1003 19.3752 20.9457C19.5759 20.791 19.6513 20.5893 19.6016 20.3407L18.8669 17.2333L21.3059 15.1037C21.505 14.9321 21.5617 14.7318 21.4759 14.5027C21.3901 14.2733 21.2229 14.1449 20.9742 14.1173L17.7669 13.8667L16.5306 10.91C16.433 10.6782 16.2567 10.5623 16.0016 10.5623C15.7467 10.5623 15.5695 10.6782 15.4699 10.91L14.2336 13.8667L11.0262 14.1173C10.7776 14.1449 10.6103 14.2733 10.5246 14.5027C10.4388 14.7318 10.4955 14.9321 10.6946 15.1037L13.1336 17.2333L12.4069 20.3407C12.3518 20.5869 12.4248 20.7879 12.6259 20.9437C12.8272 21.0997 13.0306 21.1114 13.2359 20.979L16.0002 19.3ZM11.5072 26.866H7.40523C6.77523 26.866 6.23923 26.645 5.79723 26.203C5.35523 25.761 5.13423 25.225 5.13423 24.595V20.5123L2.2269 17.5913C2.00046 17.3647 1.83612 17.1148 1.7339 16.8417C1.63168 16.5683 1.58057 16.2899 1.58057 16.0063C1.58057 15.7225 1.63168 15.442 1.7339 15.1647C1.83612 14.8873 2.00046 14.6353 2.2269 14.4087L5.13423 11.4877V7.40499C5.13423 6.77277 5.35523 6.23488 5.79723 5.79132C6.23923 5.34777 6.77523 5.12599 7.40523 5.12599H11.4879L14.4089 2.22666C14.6356 2.00021 14.8927 1.83588 15.1802 1.73366C15.4678 1.63143 15.7546 1.58032 16.0406 1.58032C16.3263 1.58032 16.6055 1.63921 16.8779 1.75699C17.1503 1.87455 17.3993 2.04221 17.6249 2.25999L20.4989 5.12599H24.5952C25.2275 5.12599 25.7653 5.34777 26.2089 5.79132C26.6525 6.23488 26.8742 6.77277 26.8742 7.40499V11.4877L29.7736 14.4087C30 14.6353 30.1643 14.8848 30.2666 15.157C30.3688 15.4294 30.4199 15.7084 30.4199 15.994C30.4199 16.2795 30.3688 16.5605 30.2666 16.837C30.1643 17.1132 30 17.3647 29.7736 17.5913L26.8742 20.5123V24.595C26.8742 25.225 26.6525 25.761 26.2089 26.203C25.7653 26.645 25.2275 26.866 24.5952 26.866H20.4989L17.6249 29.7067C17.3993 29.9191 17.1498 30.0799 16.8762 30.189C16.6029 30.2983 16.3242 30.353 16.0402 30.353C15.7562 30.353 15.4759 30.2983 15.1992 30.189C14.9228 30.0799 14.6705 29.9191 14.4422 29.7067L11.5072 26.866ZM12.4212 24.595L16.0336 28.074L19.5512 24.595H24.5952V19.5457L28.1489 16L24.5952 12.4463V7.40499H19.5539L16.0336 3.85132L12.4546 7.40499H7.40523V12.4463L3.85957 16L7.40523 19.5457V24.595H12.4212Z" fill="black"/>
</svg>
