<svg width="24" height="24" viewBox="0 0 24 24" fill="none" xmlns="http://www.w3.org/2000/svg">
<path d="M5.85046 18.1495L3.30496 20.695C3.03563 20.9643 2.72588 21.0264 2.37571 20.8812C2.02555 20.7362 1.85046 20.4772 1.85046 20.1042V3.55373C1.85046 3.09207 2.01938 2.69181 2.35721 2.35298C2.69488 2.01398 3.09371 1.84448 3.55371 1.84448H20.4462C20.9079 1.84448 21.3081 2.01398 21.647 2.35298C21.986 2.69181 22.1555 3.09207 22.1555 3.55373V16.4462C22.1555 16.9062 21.986 17.3051 21.647 17.6427C21.3081 17.9806 20.9079 18.1495 20.4462 18.1495H5.85046ZM5.20046 16.4462H20.4462V3.55373H3.55371V18.243L5.20046 16.4462ZM6.74996 14.025H13.075C13.2875 14.025 13.4656 13.9526 13.6095 13.808C13.7531 13.6635 13.825 13.4843 13.825 13.2705C13.825 13.0568 13.7531 12.8791 13.6095 12.7375C13.4656 12.5958 13.2875 12.525 13.075 12.525H6.74996C6.53746 12.525 6.35938 12.5973 6.21571 12.742C6.07188 12.8865 5.99996 13.0656 5.99996 13.2795C5.99996 13.4931 6.07188 13.6708 6.21571 13.8125C6.35938 13.9541 6.53746 14.025 6.74996 14.025ZM6.74996 10.775H17.25C17.4625 10.775 17.6406 10.7026 17.7845 10.558C17.9281 10.4135 18 10.2343 18 10.0205C18 9.80682 17.9281 9.62915 17.7845 9.48748C17.6406 9.34582 17.4625 9.27498 17.25 9.27498H6.74996C6.53746 9.27498 6.35938 9.34731 6.21571 9.49198C6.07188 9.63648 5.99996 9.81565 5.99996 10.0295C5.99996 10.2431 6.07188 10.4208 6.21571 10.5625C6.35938 10.7041 6.53746 10.775 6.74996 10.775ZM6.74996 7.52498H17.25C17.4625 7.52498 17.6406 7.45265 17.7845 7.30798C17.9281 7.16348 18 6.98432 18 6.77048C18 6.55682 17.9281 6.37915 17.7845 6.23748C17.6406 6.09582 17.4625 6.02498 17.25 6.02498H6.74996C6.53746 6.02498 6.35938 6.09731 6.21571 6.24198C6.07188 6.38648 5.99996 6.56565 5.99996 6.77948C5.99996 6.99315 6.07188 7.17082 6.21571 7.31248C6.35938 7.45415 6.53746 7.52498 6.74996 7.52498Z" fill="#0A0702"/>
</svg>
