<svg width="64" height="64" viewBox="0 0 64 64" fill="none" xmlns="http://www.w3.org/2000/svg">
<path d="M31.9961 59.4001C28.2143 59.4001 24.6565 58.683 21.3228 57.2488C17.9885 55.8145 15.0865 53.8641 12.6168 51.3974C10.1465 48.9308 8.19299 46.0288 6.7561 42.6914C5.31876 39.3541 4.6001 35.7943 4.6001 32.0121C4.6001 28.2223 5.31876 24.6621 6.7561 21.3314C8.19299 18.0003 10.1452 15.0974 12.6128 12.6228C15.0803 10.1481 17.9832 8.19232 21.3214 6.75543C24.6592 5.31854 28.2197 4.6001 32.0028 4.6001C35.7854 4.6001 39.3452 5.31854 42.6821 6.75543C46.0194 8.19232 48.9214 10.1481 51.3881 12.6228C53.8552 15.0974 55.8072 18.0014 57.2441 21.3348C58.6814 24.6681 59.4001 28.2297 59.4001 32.0194C59.4001 35.8017 58.6821 39.3597 57.2461 42.6934C55.8101 46.0277 53.857 48.9297 51.3868 51.3994C48.9165 53.8697 46.0128 55.8205 42.6754 57.2521C39.3381 58.6841 35.7783 59.4001 31.9961 59.4001ZM32.0041 55.0334C38.425 55.0334 43.8683 52.8021 48.3341 48.3394C52.8003 43.8768 55.0334 38.4357 55.0334 32.0161C55.0334 25.5819 52.799 20.1319 48.3301 15.6661C43.8617 11.1999 38.417 8.96676 31.9961 8.96676C25.5752 8.96676 20.1319 11.1999 15.6661 15.6661C11.1999 20.1319 8.96676 25.5792 8.96676 32.0081C8.96676 38.437 11.2012 43.8817 15.6701 48.3421C20.1385 52.803 25.5832 55.0334 32.0041 55.0334ZM32.0021 48.5581C27.3968 48.5581 23.4881 46.9501 20.2761 43.7341C17.0641 40.5177 15.4581 36.6108 15.4581 32.0134C15.4581 27.4157 17.0634 23.507 20.2741 20.2874C23.4852 17.0679 27.3932 15.4581 31.9981 15.4581C36.6034 15.4581 40.5148 17.0672 43.7321 20.2854C46.9494 23.5037 48.5581 27.4117 48.5581 32.0094C48.5581 36.6072 46.9501 40.5148 43.7341 43.7321C40.5177 46.9494 36.607 48.5581 32.0021 48.5581ZM31.9981 44.1914C35.3861 44.1914 38.2625 43.0094 40.6274 40.6454C42.9928 38.2819 44.1754 35.4061 44.1754 32.0181C44.1754 28.6301 42.9934 25.751 40.6294 23.3808C38.2659 21.0101 35.3901 19.8248 32.0021 19.8248C28.6141 19.8248 25.7377 21.0101 23.3728 23.3808C21.0074 25.751 19.8248 28.6301 19.8248 32.0181C19.8248 35.4061 21.0068 38.2819 23.3708 40.6454C25.7343 43.0094 28.6101 44.1914 31.9981 44.1914ZM31.9941 37.7001C30.4252 37.7001 29.0839 37.1448 27.9701 36.0341C26.8568 34.9239 26.3001 33.5841 26.3001 32.0148C26.3001 30.4459 26.8588 29.1012 27.9761 27.9808C29.0934 26.8603 30.4368 26.3001 32.0061 26.3001C33.575 26.3001 34.9163 26.8599 36.0301 27.9794C37.1434 29.099 37.7001 30.445 37.7001 32.0174C37.7001 33.5894 37.1414 34.9297 36.0241 36.0381C34.9068 37.1461 33.5634 37.7001 31.9941 37.7001Z" fill="#0A5024"/>
</svg>
