<svg width="48" height="48" viewBox="0 0 48 48" fill="none" xmlns="http://www.w3.org/2000/svg">
<path d="M5.59326 39V17.1C5.59326 16.1517 5.92476 15.3448 6.58776 14.6795C7.25076 14.0142 8.05476 13.6815 8.99976 13.6815H17.9433V10.762C17.9433 10.2993 18.0263 9.85817 18.1923 9.43851C18.3583 9.01851 18.6111 8.65934 18.9508 8.361L21.6128 5.78701C22.2628 5.14067 23.0573 4.8175 23.9963 4.8175C24.9356 4.8175 25.7324 5.14067 26.3868 5.78701L29.0368 8.33701C29.3764 8.65134 29.6333 9.02134 29.8073 9.44701C29.9813 9.87301 30.0683 10.3193 30.0683 10.786V21.9815H38.9998C39.9481 21.9815 40.7549 22.3142 41.4203 22.9795C42.0856 23.6448 42.4183 24.4517 42.4183 25.4V39C42.4183 39.945 42.0856 40.749 41.4203 41.412C40.7549 42.075 39.9481 42.4065 38.9998 42.4065H8.99976C8.05476 42.4065 7.25076 42.075 6.58776 41.412C5.92476 40.749 5.59326 39.945 5.59326 39ZM8.99976 39H14.2998V33.7H8.99976V39ZM8.99976 30.7H14.2998V25.4H8.99976V30.7ZM8.99976 22.4H14.2998V17.1H8.99976V22.4ZM21.3498 39H26.6498V33.7H21.3498V39ZM21.3498 30.7H26.6498V25.4H21.3498V30.7ZM21.3498 22.4H26.6498V17.1H21.3498V22.4ZM21.3498 14.1H26.6498V8.80001H21.3498V14.1ZM33.6998 39H38.9998V33.7H33.6998V39ZM33.6998 30.7H38.9998V25.4H33.6998V30.7Z" fill="#C89E39"/>
</svg>
