<svg id="Layer_1" viewBox="0 0 64 64" xmlns="http://www.w3.org/2000/svg" data-name="Layer 1"><path d="m32 4c-8.157 0-14.793 6.636-14.793 14.793s6.636 14.793 14.793 14.793 14.793-6.636 14.793-14.793-6.636-14.793-14.793-14.793zm-1.327 22.824h-5.676c-1.402 0-2.682-.769-3.342-2.005-.659-1.237-.583-2.729.198-3.892l1.395-2.077-1.842.113c-.544.045-1.025-.385-1.059-.937-.034-.551.386-1.025.937-1.059l3.887-.238c.037-.003.072.015.109.016.063.005.123.011.185.028.092.023.174.058.257.106.014.008.029.009.043.018.011.008.017.02.027.028.048.034.105.053.147.095.044.044.065.103.099.154.003.004.005.008.008.012.119.18.197.383.183.602l-.238 3.887c-.032.531-.473.939-.997.939-.021 0-.042 0-.062-.002-.551-.034-.971-.508-.937-1.059l.015-.252-.498.742c-.374.557-.409 1.244-.093 1.836.316.593.905.946 1.577.946h5.676c.552 0 1 .448 1 1s-.448 1-1 1zm1.828-12.773c.034-.551.505-.974 1.06-.937l1.868.115-1.515-2.256c-.674-1.004-2.291-1.005-2.966 0l-2.643 3.936c-.308.458-.928.581-1.388.272-.458-.308-.581-.929-.272-1.388l2.643-3.936c.705-1.049 1.879-1.675 3.143-1.675s2.439.626 3.144 1.675l.59.878-.013-.211c-.034-.551.386-1.025.937-1.059.552-.033 1.026.386 1.059.937l.238 3.888c.002.037-.015.072-.016.109-.004.079-.013.154-.035.231-.016.055-.038.105-.064.157-.034.069-.074.131-.124.192-.02.025-.029.057-.052.08-.024.024-.056.033-.081.054s-.04.05-.068.069c-.038.025-.08.037-.12.057-.032.016-.062.033-.095.045-.112.041-.226.068-.342.068-.021 0-.041 0-.062-.002l-3.887-.239c-.551-.034-.97-.508-.937-1.06zm10.704 10.768c-.659 1.237-1.939 2.005-3.341 2.005h-2.574l.94.831c.414.366.452.998.086 1.412-.197.223-.473.337-.75.337-.235 0-.472-.083-.662-.251l-2.918-2.58c-.008-.007-.01-.017-.017-.024-.072-.067-.124-.15-.173-.235-.018-.032-.046-.056-.06-.09-.054-.123-.086-.257-.086-.4s.032-.277.086-.4c.015-.033.042-.058.06-.09.049-.086.102-.168.173-.235.007-.007.01-.017.017-.024l2.918-2.58c.415-.367 1.047-.326 1.412.086.366.414.327 1.046-.086 1.412l-.94.831h2.574c.671 0 1.261-.354 1.576-.946.316-.592.281-1.279-.093-1.836l-2.524-3.758c-.308-.458-.186-1.08.272-1.388.459-.311 1.08-.186 1.388.272l2.524 3.758c.782 1.164.857 2.655.198 3.892z"/><path d="m14.18 56.093s-.008-.001-.012-.001h-1.131v3.909h13.318v-3.909h-.628s-.005.001-.007.001h-11.541z"/><path d="m10.477 31.687c.056-.034.113-.067.169-.098v-9.276c0-.673-.262-1.306-.737-1.782s-1.104-.737-1.77-.737c-1.382 0-2.507 1.13-2.507 2.519v13.635c0 3.532 1.077 6.91 3.113 9.768l5.951 8.376h10.025v-8.409c-.224-3.938-2.867-5.501-5.045-6.109-1.789-.489-3.383-1.656-4.484-3.286l-1.71-2.508c-.265-.397-.702-.628-1.176-.628-.115 0-.242.018-.388.055-.007.002-.015.004-.022.006-.103.034-.233.094-.365.174-.65.409-.845 1.262-.433 1.936l1.4 2.29q3.204 5.241 3.204 5.605c0 .552-.448 1-1 1-.411 0-.764-.248-.917-.602-.164-.301-1.221-2.063-2.991-4.958l-1.401-2.292c-.974-1.591-.487-3.69 1.085-4.679z"/><path d="m52.902 35.322c.413-.674.218-1.527-.443-1.942-.118-.072-.245-.13-.387-.177-.007-.002-.015-.004-.021-.007-.531-.13-1.203.09-1.526.574l-1.719 2.521c-1.098 1.625-2.692 2.793-4.487 3.283-2.172.606-4.815 2.17-5.041 6.164v8.353h10.027l5.951-8.375c2.037-2.859 3.114-6.237 3.114-9.769v-13.635c0-1.389-1.125-2.519-2.507-2.519-.666 0-1.294.262-1.77.737s-.737 1.108-.737 1.782v9.276c.053.029.106.06.158.092 1.583.995 2.07 3.094 1.096 4.686l-1.402 2.293c-1.769 2.893-2.826 4.655-2.99 4.956-.154.354-.507.602-.917.602-.552 0-1-.448-1-1q0-.365 3.203-5.603l1.4-2.292z"/><path d="m49.82 56.093h-11.541s-.005-.001-.007-.001h-.628v3.909h13.318v-3.909h-1.131s-.008.001-.012.001z"/></svg>