<svg width="24" height="24" viewBox="0 0 24 24" fill="none" xmlns="http://www.w3.org/2000/svg">
<path d="M10.1342 19.4343V16.9658H9.7592C8.4012 16.9498 7.25754 16.4693 6.3282 15.5245C5.39887 14.5795 4.9342 13.4297 4.9342 12.075C4.9342 11.0713 5.21787 10.1565 5.7852 9.33051C6.3527 8.50467 7.10145 7.91517 8.03145 7.56201C8.09012 6.89134 8.37379 6.33767 8.88245 5.90101C9.39129 5.46451 9.98537 5.25526 10.6647 5.27326L10.4255 4.58801C10.3341 4.37251 10.3429 4.16609 10.4517 3.96876C10.5604 3.77142 10.7156 3.62634 10.9175 3.53351L11.2365 3.40851L11.2115 3.30851C11.1281 3.08117 11.1385 2.85842 11.2425 2.64026C11.3465 2.42226 11.5466 2.25701 11.843 2.14451C12.0686 2.05717 12.2925 2.06034 12.5145 2.15401C12.7366 2.24767 12.8918 2.41117 12.98 2.64451L13.03 2.76951L13.33 2.66951C13.5251 2.59884 13.7224 2.60742 13.9217 2.69526C14.121 2.78292 14.2644 2.92601 14.3517 3.12451L16.7055 9.23701C16.7928 9.45684 16.7866 9.66842 16.687 9.87176C16.5873 10.0751 16.4293 10.2184 16.213 10.3018L15.8695 10.4268L15.9195 10.5518C16.0028 10.7851 15.9895 11.0088 15.8797 11.223C15.77 11.4373 15.5665 11.5962 15.269 11.6995C15.0491 11.7868 14.8338 11.7795 14.623 11.6775C14.4123 11.5755 14.2633 11.4162 14.176 11.1995L14.126 11.0495L13.751 11.1745C13.5353 11.2658 13.3311 11.2666 13.1385 11.1768C12.9456 11.0871 12.8072 10.9347 12.7232 10.7195L12.3722 9.79726C12.1287 10.0568 11.8465 10.244 11.5255 10.359C11.2045 10.474 10.8615 10.5262 10.4965 10.5155C10.0528 10.5048 9.63962 10.3765 9.25695 10.1305C8.87445 9.88451 8.57087 9.56384 8.3462 9.16851C7.8027 9.44384 7.37004 9.84326 7.0482 10.3668C6.72654 10.8904 6.5657 11.4598 6.5657 12.075C6.5657 12.9803 6.88254 13.7499 7.5162 14.3838C8.15004 15.0174 8.91962 15.3343 9.82495 15.3343H17.75C17.9811 15.3343 18.1749 15.4128 18.3312 15.5698C18.4875 15.7266 18.5657 15.9211 18.5657 16.1533C18.5657 16.3853 18.4875 16.5787 18.3312 16.7335C18.1749 16.8883 17.9811 16.9658 17.75 16.9658H12.7657V19.4343H18.25C18.4811 19.4343 18.6749 19.5128 18.8312 19.6698C18.9875 19.8266 19.0657 20.0211 19.0657 20.2533C19.0657 20.4853 18.9875 20.6787 18.8312 20.8335C18.6749 20.9883 18.4811 21.0658 18.25 21.0658H5.74995C5.51879 21.0658 5.32504 20.9873 5.1687 20.8303C5.01237 20.6734 4.9342 20.4789 4.9342 20.2468C4.9342 20.0148 5.01237 19.8213 5.1687 19.6665C5.32504 19.5117 5.51879 19.4343 5.74995 19.4343H10.1342ZM13.9 9.70001L15.225 9.22501L13.225 4.07501L11.9 4.55001L13.9 9.70001ZM10.6455 9.12501C10.9985 9.12501 11.2958 9.00567 11.5375 8.76701C11.7791 8.52817 11.9 8.23234 11.9 7.87951C11.9 7.52651 11.7806 7.22917 11.542 6.98751C11.3031 6.74584 11.0073 6.62501 10.6545 6.62501C10.3015 6.62501 10.0041 6.74434 9.76245 6.98301C9.52079 7.22184 9.39995 7.51767 9.39995 7.87051C9.39995 8.22351 9.51929 8.52084 9.75795 8.76251C9.99679 9.00417 10.2926 9.12501 10.6455 9.12501Z" fill="#0A0702"/>
</svg>
