<svg width="48" height="48" viewBox="0 0 48 48" fill="none" xmlns="http://www.w3.org/2000/svg">
<path d="M23.7302 41C23.8942 41 24.0845 40.9604 24.3012 40.881C24.5179 40.8017 24.6969 40.6914 24.8382 40.55L41.6402 23.698C42.0892 23.2487 42.4302 22.7339 42.6632 22.1535C42.8959 21.5735 43.0122 20.9772 43.0122 20.3645C43.0122 19.7575 42.8959 19.1534 42.6632 18.552C42.4302 17.9507 42.0892 17.4217 41.6402 16.965L32.9752 8.30002C32.5339 7.86669 32.0237 7.54169 31.4447 7.32502C30.866 7.10836 30.2867 7.00002 29.7067 7.00002C29.1274 7.00002 28.5574 7.10636 27.9967 7.31902C27.436 7.53169 26.943 7.84669 26.5177 8.26403L25.7012 9.09252L29.6797 13.1085C30.1367 13.6072 30.5419 14.1829 30.8952 14.8355C31.2485 15.4879 31.4252 16.2049 31.4252 16.9865C31.4252 18.3165 30.9054 19.4927 29.8657 20.515C28.8257 21.5377 27.6359 22.049 26.2962 22.049C25.4179 22.049 24.6877 21.916 24.1057 21.65C23.5237 21.384 22.9835 21.0019 22.4852 20.5035L18.8587 16.877L10.0242 25.712C9.85754 25.8724 9.74088 26.0452 9.67421 26.2305C9.60754 26.4159 9.57421 26.6097 9.57421 26.812C9.57421 27.2454 9.71488 27.6017 9.99621 27.881C10.2775 28.1604 10.6335 28.3 11.0642 28.3C11.2629 28.3 11.4554 28.25 11.6417 28.15C11.8284 28.05 11.9892 27.9334 12.1242 27.8L17.8512 22.074C18.1535 21.771 18.5047 21.6195 18.9047 21.6195C19.3047 21.6195 19.6547 21.7715 19.9547 22.0755C20.2547 22.3795 20.4047 22.73 20.4047 23.127C20.4047 23.524 20.2547 23.8715 19.9547 24.1695L14.2752 29.8485C14.1079 30.0162 13.9909 30.2027 13.9242 30.408C13.8575 30.6137 13.8242 30.815 13.8242 31.012C13.8242 31.415 13.9702 31.7639 14.2622 32.0585C14.5542 32.3529 14.9002 32.5 15.3002 32.5C15.5002 32.5 15.6944 32.458 15.8827 32.374C16.071 32.2904 16.236 32.1815 16.3777 32.0475L22.0767 26.336C22.3794 26.033 22.7307 25.8835 23.1307 25.8875C23.5307 25.8915 23.8807 26.0395 24.1807 26.3315C24.4807 26.6315 24.6307 26.9815 24.6307 27.3815C24.6307 27.7815 24.4807 28.1315 24.1807 28.4315L18.4897 34.111C18.3634 34.245 18.2565 34.4204 18.1692 34.637C18.0819 34.8537 18.0382 35.062 18.0382 35.262C18.0382 35.662 18.1882 36.012 18.4882 36.312C18.7882 36.612 19.1382 36.762 19.5382 36.762C19.7382 36.762 19.9229 36.7267 20.0922 36.656C20.2619 36.5854 20.4272 36.4707 20.5882 36.312L26.3187 30.5695C26.6167 30.2695 26.9662 30.1215 27.3672 30.1255C27.7682 30.1295 28.1187 30.2775 28.4187 30.5695C28.7187 30.8775 28.8687 31.23 28.8687 31.627C28.8687 32.024 28.7187 32.3715 28.4187 32.6695L22.6882 38.4C22.5295 38.5667 22.4149 38.7527 22.3442 38.958C22.2735 39.1637 22.2382 39.3484 22.2382 39.512C22.2382 39.9817 22.3715 40.3472 22.6382 40.6085C22.9049 40.8695 23.2689 41 23.7302 41ZM23.7382 44.275C22.5985 44.275 21.5774 43.8647 20.6747 43.044C19.772 42.2234 19.2215 41.201 19.0232 39.977C17.9055 39.8024 16.9615 39.3279 16.1912 38.5535C15.4205 37.7789 14.9479 36.8367 14.7732 35.727C13.6715 35.5447 12.7437 35.0637 11.9897 34.284C11.2357 33.5047 10.7675 32.577 10.5852 31.501C9.34388 31.3027 8.31721 30.7647 7.50521 29.887C6.69321 29.0097 6.28721 27.9679 6.28721 26.7615C6.28721 26.1632 6.40288 25.565 6.63421 24.967C6.86521 24.369 7.20671 23.8409 7.65871 23.3825L16.4717 14.5695C17.1237 13.9232 17.9207 13.6 18.8627 13.6C19.805 13.6 20.6034 13.9232 21.2577 14.5695L24.5382 17.85C24.8049 18.1167 25.0979 18.327 25.4172 18.481C25.7365 18.635 26.0515 18.712 26.3622 18.712C26.7885 18.712 27.1912 18.5212 27.5702 18.1395C27.9489 17.7582 28.1382 17.3524 28.1382 16.922C28.1382 16.7234 28.0759 16.495 27.9512 16.237C27.8265 15.979 27.6347 15.7165 27.3757 15.4495L20.2017 8.27502C19.7767 7.85036 19.2707 7.53169 18.6837 7.31902C18.097 7.10636 17.5057 7.00002 16.9097 7.00002C16.3054 7.00002 15.7252 7.10636 15.1692 7.31902C14.6132 7.53169 14.1272 7.84969 13.7112 8.27303L6.22871 15.7325C5.60171 16.3675 5.21721 17.142 5.07521 18.056C4.93321 18.97 5.03754 19.8405 5.38821 20.6675C5.53088 21.0739 5.50504 21.4767 5.31071 21.876C5.11604 22.2754 4.81338 22.5544 4.40271 22.713C3.99238 22.8717 3.57721 22.8479 3.15721 22.6415C2.73721 22.4349 2.44988 22.1244 2.29521 21.71C1.76454 20.2337 1.61988 18.7659 1.86121 17.3065C2.10254 15.8472 2.79454 14.5454 3.93721 13.401L11.3557 5.97303C12.105 5.22369 12.9747 4.67002 13.9647 4.31202C14.9547 3.95402 15.953 3.77502 16.9597 3.77502C17.99 3.77502 18.986 3.95402 19.9477 4.31202C20.909 4.67002 21.7624 5.21569 22.5077 5.94902L23.3362 6.76502L24.1522 5.94902C24.8935 5.22369 25.7582 4.68002 26.7462 4.31802C27.7342 3.95602 28.7367 3.77502 29.7537 3.77502C30.768 3.77502 31.7594 3.96002 32.7277 4.33002C33.6964 4.70002 34.5554 5.25952 35.3047 6.00852L44.0037 14.6955C44.761 15.4499 45.3289 16.3284 45.7072 17.331C46.0859 18.3337 46.2752 19.3449 46.2752 20.3645C46.2752 21.3845 46.0799 22.392 45.6892 23.387C45.2989 24.382 44.725 25.262 43.9677 26.027L27.1297 42.8535C26.6724 43.3105 26.1527 43.6617 25.5707 43.907C24.989 44.1524 24.3782 44.275 23.7382 44.275Z" fill="#0A5024"/>
</svg>
