<svg width="48" height="48" viewBox="0 0 48 48" fill="none" xmlns="http://www.w3.org/2000/svg">
<path d="M22.3447 40.085V24.938L9.10767 17.289V32.4355L22.3447 40.085ZM25.6677 40.085L38.8927 32.4355V17.239L25.6677 24.938V40.085ZM22.2967 43.977L7.40467 35.399C6.86601 35.0923 6.44751 34.673 6.14917 34.141C5.85051 33.609 5.70117 33.042 5.70117 32.44V15.56C5.70117 14.958 5.85051 14.391 6.14917 13.859C6.44751 13.327 6.86601 12.9077 7.40467 12.601L22.2967 4.01099C22.8273 3.71232 23.3952 3.56299 24.0002 3.56299C24.6052 3.56299 25.173 3.71232 25.7037 4.01099L40.5957 12.601C41.1343 12.9077 41.5548 13.327 41.8572 13.859C42.1598 14.391 42.3112 14.958 42.3112 15.56V32.44C42.3112 33.042 42.1598 33.609 41.8572 34.141C41.5548 34.673 41.1343 35.0923 40.5957 35.399L25.7037 43.977C25.173 44.2837 24.6052 44.437 24.0002 44.437C23.3952 44.437 22.8273 44.2837 22.2967 43.977ZM32.1762 17.3325L37.0372 14.514L24.0002 6.96949L19.1512 9.77599L32.1762 17.3325ZM24.0002 22.1085L28.9612 19.202L15.8742 11.6695L10.9252 14.514L24.0002 22.1085Z" fill="#0A5024"/>
</svg>
