<svg id="Layer_1" viewBox="0 0 64 64" xmlns="http://www.w3.org/2000/svg" data-name="Layer 1"><path d="m37.108 15.654c-.035-.028-3.475-2.826-6.712-2.108-1.716.382-3.131 1.726-4.205 3.992-1 2.109-1.436 4.632-1.258 7.296.225 3.38 1.161 9.485 4.898 12.404 1.983 1.55 4.585 2.048 7.738 1.48.059-.011.118-.016.177-.016s.119.005.177.016c3.151.567 5.754.069 7.737-1.48 3.738-2.919 4.673-9.024 4.898-12.404.177-2.664-.258-5.187-1.258-7.296-1.074-2.267-2.489-3.61-4.205-3.992-3.237-.721-6.677 2.08-6.712 2.108-.369.305-.906.305-1.275 0zm5.541.062c.35.427.288 1.058-.14 1.407-1.68 1.377-3.364 2.071-5.017 2.071-.224 0-.446-.013-.668-.038-2.503-.286-3.941-2.118-4.001-2.196-.337-.438-.256-1.065.182-1.402.435-.337 1.061-.258 1.398.177.019.022 1.023 1.26 2.674 1.438 1.294.141 2.702-.396 4.165-1.596.427-.35 1.058-.287 1.407.14z"/><path d="m46.693 4.097c-4.246 1.073-6.39 4.557-7.471 7.685 3.017-2.992 7.369-4.671 9.747-5.418z"/><path d="m6.314 41.319h6.205c.675 0 1.223.548 1.223 1.223v16.234c0 .675-.548 1.224-1.224 1.224h-6.204c-.675 0-1.223-.548-1.223-1.223v-16.235c0-.675.548-1.223 1.223-1.223z"/><path d="m57.09 39.067c-.638-.146-1.283-.024-1.824.34l-13.228 8.888c-.677.672-1.607 1.089-2.634 1.089h-10.96c-.552 0-1-.447-1-1s.448-1 1-1h10.96c.959 0 1.74-.78 1.74-1.74s-.781-1.74-1.74-1.74h-4.459c-2.636 0-5.235-.696-7.519-2.014-1.233-.712-2.639-1.088-4.065-1.088-1.98 0-3.889.721-5.375 2.028l-2.243 1.973v11.134l6.576 1.298c5.291 1.044 10.818.769 15.98-.798 4.42-1.341 8.438-3.548 11.941-6.561l7.856-6.756c.857-.738 1.064-1.981.492-2.957-.33-.562-.862-.952-1.498-1.098z"/></svg>