<svg width="48" height="48" viewBox="0 0 48 48" fill="none" xmlns="http://www.w3.org/2000/svg">
<path d="M16.0892 40.8925H31.9297L34.2632 31.835H13.7492L16.0892 40.8925ZM16.0892 44.299C15.3188 44.299 14.6282 44.0622 14.0172 43.5885C13.4058 43.1145 12.9943 42.5017 12.7827 41.75L10.2187 31.835H37.7937L35.2417 41.75C35.0287 42.5097 34.6148 43.1244 34.0002 43.594C33.3858 44.064 32.6975 44.299 31.9352 44.299H16.0892ZM9.10767 28.4285H38.8927V23.787H9.10767V28.4285ZM24.0122 15.8545C24.1788 12.8732 25.3193 10.3314 27.4337 8.22904C29.5483 6.12637 32.0835 4.72104 35.0392 4.01304C35.2018 3.9797 35.3482 3.97337 35.4782 3.99404C35.6082 4.0147 35.7272 4.08104 35.8352 4.19304C35.9428 4.30504 36.0153 4.42754 36.0527 4.56054C36.09 4.69387 36.092 4.83454 36.0587 4.98254C35.492 7.64787 34.2908 9.96787 32.4552 11.9425C30.6192 13.9172 28.3687 15.152 25.7037 15.647V20.3685H40.5957C41.0757 20.3685 41.4815 20.5344 41.8132 20.866C42.1452 21.198 42.3112 21.6039 42.3112 22.0835V28.4285C42.3112 29.3732 41.9802 30.177 41.3182 30.84C40.6558 31.5034 39.8672 31.835 38.9522 31.835H9.06017C8.13951 31.835 7.34951 31.5034 6.69017 30.84C6.03084 30.177 5.70117 29.3732 5.70117 28.4285V22.0835C5.70117 21.6039 5.86484 21.198 6.19217 20.866C6.51951 20.5344 6.92367 20.3685 7.40467 20.3685H22.3087V15.6545C19.6357 15.1705 17.3852 13.9372 15.5572 11.9545C13.7292 9.97187 12.5318 7.64787 11.9652 4.98254C11.9318 4.83454 11.9338 4.69387 11.9712 4.56054C12.0085 4.42754 12.0812 4.30504 12.1892 4.19304C12.2972 4.08104 12.415 4.00637 12.5427 3.96904C12.67 3.9317 12.8135 3.9297 12.9732 3.96304C15.9622 4.6377 18.5158 6.04104 20.6342 8.17304C22.7528 10.3047 23.8788 12.8652 24.0122 15.8545Z" fill="#D2AE5B"/>
</svg>
