<svg id="Layer_1" viewBox="0 0 64 64" xmlns="http://www.w3.org/2000/svg" data-name="Layer 1"><path d="m34.15 6.15c-12.009 0-22.622 8.527-25.234 20.276-.086.389-.394.688-.784.765-.393.077-.789-.086-1.015-.413l-1.3-1.88c-.164-.237-.424-.39-.716-.419-.172-.019-.506-.005-.805.281-.338.324-.364.924-.058 1.367l4.234 6.134c.049.071.131.147.26.242l.024.018c.033.021.066.04.099.055 0 0 .101.04.102.041l.222.056c.045.01.054.011.021.01.02 0 .04.003.06.006.046-.005.097-.009.129-.009.242-.004.483-.125.662-.34l5.185-5.421c.188-.195.288-.448.282-.713-.006-.263-.115-.508-.308-.69-.197-.192-.458-.284-.708-.285-.267.005-.515.114-.699.308l-.922.963c-.318.333-.82.404-1.219.177-.398-.229-.59-.699-.465-1.141 3.252-11.468 14.599-18.842 26.407-17.149 10.645 1.526 19.168 10.403 20.266 21.107.702 6.838-1.437 13.401-6.021 18.48-4.523 5.011-10.975 7.885-17.7 7.885-3.389 0-6.811-.749-9.896-2.165-.141-.065-.291-.098-.439-.098-.116 0-.233.02-.344.061-.249.089-.447.271-.558.513-.23.504-.01 1.1.49 1.329 3.404 1.559 7.02 2.35 10.748 2.35 14.254 0 25.85-11.596 25.85-25.85s-11.596-25.851-25.85-25.851z"/><path d="m29.043 18.613-.036 1.814h9.786v-1.758z"/><path d="m40.687 46.657c.928 0 1.683-.755 1.683-1.683s-.755-1.683-1.683-1.683-1.683.755-1.683 1.683.755 1.683 1.683 1.683z"/><path d="m23.921 22.427v1.803h19.938v-1.803h-4.066-11.806z"/><path d="m41.29 26.231h-14.794l1.368 17.896h9.248c.342-1.441 1.528-2.547 3.008-2.779l1.169-15.118zm-8.982 11.448h-2.5c-.357 0-.688-.19-.866-.5s-.178-.69 0-1l1.25-2.165c.276-.478.887-.643 1.366-.366.479.276.642.888.366 1.366l-.384.665h.768c.552 0 1 .447 1 1s-.448 1-1 1zm1.967-5.407-.384-.665-.384.665c-.277.478-.888.643-1.366.366-.479-.276-.642-.888-.366-1.366l1.25-2.165c.357-.619 1.375-.619 1.732 0l1.25 2.165c.276.479.112 1.09-.366 1.366-.157.091-.33.134-.499.134-.346 0-.682-.179-.867-.5zm4.566 4.907c-.179.31-.509.5-.866.5h-2.5c-.552 0-1-.447-1-1s.448-1 1-1h.768l-.384-.665c-.276-.479-.112-1.09.366-1.366.477-.276 1.089-.113 1.366.366l1.25 2.165c.178.31.178.69 0 1z"/></svg>