<svg width="48" height="48" viewBox="0 0 48 48" fill="none" xmlns="http://www.w3.org/2000/svg">
<path d="M24.0002 38.9045C28.1348 38.9045 31.6507 37.458 34.5477 34.565C37.4443 31.6723 38.8927 28.1626 38.8927 24.036V9.09546H23.9882C19.8535 9.09546 16.3378 10.5458 13.4412 13.4465C10.5442 16.3475 9.09567 19.8653 9.09567 24C9.09567 28.1346 10.546 31.6525 13.4467 34.5535C16.3477 37.4541 19.8655 38.9045 24.0002 38.9045ZM21.3022 33.9415L31.7957 24.512C32.129 24.204 32.229 23.8376 32.0957 23.413C31.9623 22.9883 31.6623 22.7426 31.1957 22.676L22.9882 21.864L27.9102 15.1065C28.0512 14.9398 28.1095 14.7588 28.0852 14.5635C28.0605 14.3681 27.9815 14.1911 27.8482 14.0325C27.6815 13.8658 27.4878 13.7805 27.2672 13.7765C27.0465 13.7725 26.8528 13.8538 26.6862 14.0205L16.2427 23.438C15.9093 23.738 15.8093 24.1023 15.9427 24.531C16.076 24.9596 16.376 25.2033 16.8427 25.262L25.0622 26.098L20.0902 32.8555C19.9568 33.0221 19.9005 33.2011 19.9212 33.3925C19.9418 33.5838 20.0355 33.7628 20.2022 33.9295C20.3608 34.0961 20.5442 34.1815 20.7522 34.1855C20.9602 34.1895 21.1435 34.1081 21.3022 33.9415ZM24.0002 42.299C21.7588 42.299 19.6508 41.928 17.6762 41.186C15.7015 40.444 13.9102 39.4103 12.3022 38.085L8.58617 41.801C8.40351 41.9836 8.21684 42.1123 8.02617 42.187C7.83551 42.2616 7.62834 42.299 7.40467 42.299C6.94067 42.299 6.54084 42.131 6.20517 41.795C5.86917 41.4593 5.70117 41.0595 5.70117 40.5955C5.70117 40.3718 5.73851 40.1646 5.81317 39.974C5.88784 39.7833 6.01651 39.5966 6.19917 39.414L9.91517 35.698C8.58984 34.09 7.55617 32.2986 6.81417 30.324C6.07217 28.3493 5.70117 26.2413 5.70117 24C5.70117 18.9123 7.48117 14.5886 11.0412 11.029C14.6008 7.46896 18.9205 5.68896 24.0002 5.68896H38.8927C39.8453 5.68896 40.6533 6.02046 41.3167 6.68346C41.9797 7.3468 42.3112 8.1548 42.3112 9.10746V24C42.3112 29.0796 40.5312 33.3993 36.9712 36.959C33.4115 40.519 29.0878 42.299 24.0002 42.299Z" fill="#D2AE5B"/>
</svg>
