<svg width="48" height="48" viewBox="0 0 48 48" fill="none" xmlns="http://www.w3.org/2000/svg">
<path d="M10.4467 39.4535C8.95401 37.9215 7.78984 36.1507 6.95417 34.141C6.11884 32.1317 5.70117 30.0766 5.70117 27.976C5.70117 25.519 6.13417 23.2641 7.00017 21.2115C7.86617 19.1588 9.15717 17.2745 10.8732 15.5585C13.0195 13.4201 16.0792 11.882 20.0522 10.944C24.0255 10.006 28.9005 9.60432 34.6772 9.73898C35.4235 9.77232 36.1033 9.92365 36.7167 10.193C37.3297 10.462 37.8847 10.8371 38.3817 11.3185C38.8683 11.8061 39.2542 12.3568 39.5392 12.9705C39.8238 13.5841 39.9812 14.2683 40.0112 15.023C40.1032 17.9113 40.0658 20.5791 39.8992 23.0265C39.7325 25.4741 39.4075 27.702 38.9242 29.71C38.4408 31.7177 37.809 33.5043 37.0287 35.07C36.2483 36.6353 35.3067 37.971 34.2037 39.077C32.504 40.7847 30.6533 42.08 28.6517 42.963C26.65 43.8457 24.5142 44.287 22.2442 44.287C19.8988 44.287 17.752 43.8973 15.8037 43.118C13.855 42.3386 12.0693 41.1172 10.4467 39.4535ZM15.8602 39.1425C16.6988 39.7092 17.6668 40.1385 18.7642 40.4305C19.8615 40.7225 21.0193 40.8685 22.2377 40.8685C23.9897 40.8685 25.6905 40.5038 27.3402 39.7745C28.9895 39.0452 30.4857 37.9925 31.8287 36.6165C32.7843 35.6525 33.5808 34.4017 34.2182 32.864C34.8555 31.3263 35.3622 29.552 35.7382 27.541C36.1142 25.5296 36.357 23.3118 36.4667 20.8875C36.576 18.4631 36.568 15.8865 36.4427 13.1575C33.3333 13.0828 30.5448 13.1225 28.0772 13.2765C25.6098 13.4305 23.4322 13.7075 21.5442 14.1075C19.6562 14.5075 18.0368 15.0178 16.6862 15.6385C15.3355 16.2591 14.2387 17.0075 13.3957 17.8835C12.0197 19.2851 10.961 20.7833 10.2197 22.378C9.47834 23.9726 9.10767 25.5883 9.10767 27.225C9.10767 28.7906 9.43934 30.4413 10.1027 32.177C10.7663 33.9127 11.5993 35.3098 12.6017 36.3685C14.318 33.1495 16.3975 30.256 18.8402 27.688C21.2832 25.12 23.9198 23.066 26.7502 21.526C23.8822 24.034 21.5522 26.7423 19.7602 29.651C17.9678 32.5597 16.6678 35.7235 15.8602 39.1425Z" fill="#0A5024"/>
</svg>
