<svg id="Layer_1" viewBox="0 0 64 64" xmlns="http://www.w3.org/2000/svg" data-name="Layer 1"><path d="m12.24 22.78c-.28-.76-.83-1.36-1.57-1.7-1.5-.69-3.29-.03-3.98 1.48-1.68 3.66-2.53 7.56-2.53 11.58 0 15.35 12.5 27.85 27.85 27.85s27.85-12.5 27.85-27.85c0-12.2-8.16-23.06-19.71-26.62l.1-.07c.72-.49 1.18-1.28 1.27-2.16.09-.87-.21-1.75-.82-2.39-1-1.04-2.7-1.18-3.95-.32l-6.13 4.23c-.34.24-.58.53-.72.72-.01.01-.02.02-.02.03-.02.02-.03.04-.04.05-.09.14-.17.28-.21.38-.04.07-.06.13-.06.14-.07.15-.12.31-.16.49l.97.26-1-.12c-.01.06-.03.15-.04.26-.02.09-.02.18-.02.26 0 .06.01.12.01.12.02.83.4 1.63 1.01 2.13l5.37 5.14c.58.56 1.34.86 2.14.84s1.54-.35 2.09-.92c.56-.58.86-1.33.84-2.14 0-.11-.01-.22-.02-.32 8.86 3.9 14.29 13.37 12.88 23.18-.33 2.32-1.05 4.53-2.08 6.57-.79-.27-1.61-.41-2.44-.41-1.83 0-3.56.66-4.93 1.85-1.57-2.31-4.22-3.75-7.07-3.75-1.51 0-2.97.42-4.26 1.16v-18.89c0-1.66 1.35-3.01 3-3.01.81 0 1.57.31 2.13.87.42.43.7.96.82 1.54-.18.1-.34.2-.5.31-.01 0-.02.01-.04.02-2.77 1.89-2.49 5.1-1.86 6.67 1.59 4.65 5.72 5.84 8.65 5.84.61 0 1.18-.05 1.65-.14.45-.08.78-.45.82-.9.04-.46-.24-.88-.67-1.03-1.74-.61-1.63-2.74-1.41-3.96.21-1.15.2-2.28-.03-3.37-.36-1.67-1.12-2.84-2.27-3.49-.85-.48-1.74-.56-2.43-.51-.21-.89-.65-1.71-1.31-2.39-.95-.94-2.21-1.46-3.55-1.46-2.76 0-5 2.25-5 5.01v1.5l-2.11-2.85c-1.06-1.45-2.76-2.31-4.55-2.31-1.52 0-2.94.59-4.01 1.66-.56.56-1 1.23-1.28 1.96-.55.04-1.18.17-1.78.51-1.15.65-1.91 1.82-2.26 3.49-.23 1.09-.24 2.22-.04 3.37.27 1.49.24 3.38-1.41 3.96-.43.15-.7.57-.67 1.03.04.45.38.82.82.9.48.09 1.04.14 1.66.14 2.93 0 7.05-1.19 8.63-5.8.71-1.78.98-5.56-2.89-7.28.16-.32.38-.61.63-.86.69-.7 1.62-1.08 2.6-1.08 1.15 0 2.25.56 2.94 1.49l3.72 5.04v12.26c-1.92-1.97-4.59-3.15-7.45-3.15-4.78 0-8.83 3.27-10.04 7.69-2.08-3.4-3.22-7.33-3.22-11.37 0-3.11.69-6.24 1.98-9.06.34-.73.38-1.55.11-2.3zm30.07 7.63c-1.04-.67-1.95-3.41-2.37-5.49.09-.05.17-.1.28-.14.16-.05 1.15-.31 1.96.16.62.36 1.05 1.08 1.28 2.16.17.83.18 1.7.02 2.6-.31 1.73-.15 3.2.45 4.3-1.95-.24-4.53-1.19-5.65-4.45-.09-.23-.58-1.65-.01-2.97.49 1.89 1.42 4.52 2.96 5.51.17.11.35.16.54.16.33 0 .65-.16.84-.46.3-.46.17-1.08-.3-1.38zm-20.37-2.87c.69 1.37.15 2.91.05 3.17-1.11 3.23-3.69 4.18-5.64 4.41.6-1.1.76-2.57.45-4.3-.16-.9-.15-1.77.02-2.6.23-1.08.66-1.8 1.28-2.16.37-.21.78-.28 1.13-.28.42 0 .75.09.84.12.03.01.05.03.08.04-.1 1.14-.49 3.63-1.91 4.93-.4.38-.43 1.01-.06 1.42.2.21.47.32.74.32.24 0 .48-.09.68-.26 1.41-1.3 2.05-3.29 2.34-4.81zm-11.62-3.3c-1.42 3.09-2.17 6.51-2.17 9.9 0 6.72 2.88 13.18 7.89 17.7 5.08 4.58 11.64 6.72 18.48 6.02 7.78-.8 14.57-5.53 18.3-12.13.04-.05.08-.08.11-.14.01-.02.01-.05.02-.08 1.33-2.43 2.27-5.09 2.67-7.92 1.7-11.8-5.68-23.15-17.14-26.4-.45-.13-.92.06-1.15.46-.22.4-.15.9.18 1.22l.96.92c.2.19.31.44.31.7.01.26-.09.51-.28.71-.19.19-.43.3-.69.31-.27.01-.52-.1-.72-.28l-5.42-5.19c-.21-.18-.33-.42-.34-.66 0-.04 0-.08-.01-.1 0-.02 0-.04.01-.05.01-.04.03-.15.03-.16l-.97-.26 1.01.14c.01-.03.03-.08.04-.11s.03-.07.05-.1l.02-.02c.09-.13.17-.21.24-.26l6.14-4.23c.44-.31 1.04-.28 1.36.05.29.3.3.64.28.81-.03.29-.18.55-.42.72l-1.88 1.29c-.32.23-.49.63-.41 1.02s.38.7.77.78c11.74 2.62 20.27 13.23 20.27 25.24 0 14.25-11.59 25.85-25.85 25.85s-25.85-11.6-25.85-25.85c0-3.73.79-7.35 2.35-10.75.17-.37.53-.58.91-.58.14 0 .29.03.42.09.24.11.42.31.51.56.1.25.08.53-.03.78z"/></svg>