<svg width="48" height="48" viewBox="0 0 48 48" fill="none" xmlns="http://www.w3.org/2000/svg">
<path d="M12.9547 42.299C12.0064 42.299 11.1995 41.9675 10.5342 41.3045C9.86888 40.6415 9.53622 39.8375 9.53622 38.8925V10.5955H8.98622C8.50522 10.5955 8.10105 10.431 7.77372 10.102C7.44638 9.773 7.28271 9.36683 7.28271 8.8835C7.28271 8.40017 7.44638 7.997 7.77372 7.674C8.10105 7.35067 8.50522 7.189 8.98622 7.189H17.1967C17.1967 6.7 17.3605 6.29183 17.6882 5.9645C18.0155 5.6375 18.4195 5.474 18.9002 5.474H29.0882C29.5689 5.474 29.973 5.63983 30.3007 5.9715C30.628 6.3035 30.7917 6.70933 30.7917 7.189H39.0142C39.4952 7.189 39.8994 7.3535 40.2267 7.6825C40.5541 8.0115 40.7177 8.41767 40.7177 8.901C40.7177 9.38433 40.5541 9.78767 40.2267 10.111C39.8994 10.434 39.4952 10.5955 39.0142 10.5955H38.4642V38.8925C38.4642 39.8375 38.1316 40.6415 37.4662 41.3045C36.8009 41.9675 35.994 42.299 35.0457 42.299H12.9547ZM35.0457 10.5955H12.9547V38.8925H35.0457V10.5955ZM22.4047 21.477V29.628C22.4047 30.0887 22.562 30.4727 22.8767 30.78C23.191 31.0877 23.5732 31.2415 24.0232 31.2415C24.4732 31.2415 24.8497 31.0852 25.1527 30.7725C25.456 30.4602 25.6077 30.0805 25.6077 29.6335V21.477L28.4142 24.4835C28.7229 24.8075 29.1009 24.9695 29.5482 24.9695C29.9956 24.9695 30.3774 24.8082 30.6937 24.4855C31.019 24.1685 31.1817 23.8 31.1817 23.38C31.1817 22.96 31.0197 22.588 30.6957 22.264L25.2177 16.712C24.867 16.372 24.4627 16.202 24.0047 16.202C23.5467 16.202 23.1474 16.372 22.8067 16.712L17.3167 22.264C17.018 22.59 16.8644 22.9662 16.8557 23.3925C16.847 23.8185 17.0012 24.1867 17.3182 24.497C17.6409 24.82 18.0205 24.9712 18.4572 24.9505C18.8939 24.9298 19.2742 24.7575 19.5982 24.4335L22.4047 21.477Z" fill="#0A5024"/>
</svg>
